<?xml version="1.0" encoding="UTF-8" standalone="no"?>
<!DOCTYPE svg PUBLIC "-//W3C//DTD SVG 1.1//EN" "http://www.w3.org/Graphics/SVG/1.1/DTD/svg11.dtd">
<svg width="100%" height="100%" viewBox="0 0 314 49" version="1.1" xmlns="http://www.w3.org/2000/svg" xmlns:xlink="http://www.w3.org/1999/xlink" xml:space="preserve" xmlns:serif="http://www.serif.com/" style="fill-rule:evenodd;clip-rule:evenodd;stroke-linecap:round;stroke-linejoin:round;stroke-miterlimit:1.5;">
    <g transform="matrix(1,0,0,1,-371,-2077)">
        <g transform="matrix(1,0,0,1,29.252,-15.517)">
            <g id="Logo-g" serif:id="Logo g" transform="matrix(0.568498,0,0,0.568498,242.854,1061.48)">
                <g transform="matrix(1,0,0,1,-29.252,15.517)">
                    <path d="M249.699,1883.36L204.42,1883.36L204.42,1838.08L223.536,1838.08L223.536,1865.02L249.699,1865.02L249.699,1883.36Z" style="fill:rgb(17,0,47);"/>
                </g>
                <g transform="matrix(1,0,0,1,-29.252,15.517)">
                    <path d="M316.376,1873.49L316.376,1883.36L271.098,1883.36L271.098,1838.08L316.376,1838.08L316.376,1846.55L300.828,1846.55L300.828,1855.15L316.376,1855.15L316.376,1864.89L300.828,1864.89L300.828,1873.49L316.376,1873.49Z" style="fill:rgb(17,0,47);"/>
                </g>
                <g transform="matrix(1,0,0,1,274.358,15.517)">
                    <path d="M316.376,1873.49L316.376,1883.36L271.098,1883.36L271.098,1838.08L316.376,1838.08L316.376,1846.55L300.828,1846.55L300.828,1855.15L316.376,1855.15L316.376,1864.89L300.828,1864.89L300.828,1873.49L316.376,1873.49Z" style="fill:rgb(17,0,47);"/>
                </g>
                <g transform="matrix(1,0,0,1,-29.252,15.517)">
                    <path d="M383.054,1883.36L337.775,1883.36L337.775,1838.08L383.054,1838.08L383.054,1856.29L360.415,1856.29L360.415,1869.32L371.734,1869.32L371.734,1864.89L383.054,1864.89L383.054,1883.36Z" style="fill:rgb(17,0,47);"/>
                </g>
                <g>
                    <g transform="matrix(0.5,0,0,0.297491,287.616,1283.05)">
                        <rect x="175.168" y="1852.7" width="45.278" height="45.278" style="fill:rgb(17,0,47);"/>
                    </g>
                    <g transform="matrix(0.5,0,0,1,287.616,0.891009)">
                        <rect x="175.168" y="1852.7" width="45.278" height="45.278" style="fill:rgb(17,0,47);"/>
                    </g>
                    <g transform="matrix(1,0,0,1,-29.252,15.517)">
                        <path d="M415.772,1813.26L415.772,1800.22" style="fill:none;stroke:rgb(15,15,15);stroke-width:1.76px;"/>
                    </g>
                    <g transform="matrix(0.707107,0.707107,-0.707107,0.707107,1388.71,255.312)">
                        <path d="M415.772,1813.26L415.772,1800.22" style="fill:none;stroke:rgb(15,15,15);stroke-width:1.76px;"/>
                    </g>
                    <g transform="matrix(-0.707107,0.707107,0.707107,0.707107,-615.669,255.312)">
                        <path d="M415.772,1813.26L415.772,1800.22" style="fill:none;stroke:rgb(15,15,15);stroke-width:1.76px;"/>
                    </g>
                    <g transform="matrix(0,1,-1,0,2216.5,1425.18)">
                        <path d="M415.772,1813.26L415.772,1800.22" style="fill:none;stroke:rgb(15,15,15);stroke-width:1.76px;"/>
                    </g>
                    <g transform="matrix(0,1,1,0,-1443.46,1425.18)">
                        <path d="M415.772,1813.26L415.772,1800.22" style="fill:none;stroke:rgb(15,15,15);stroke-width:1.76px;"/>
                    </g>
                </g>
                <g transform="matrix(3.04971,0,0,1,-825.91,0.891009)">
                    <path d="M415.183,1852.7L423.993,1897.98L406.373,1897.98L415.183,1852.7Z" style="fill:rgb(17,0,47);"/>
                </g>
                <g transform="matrix(1,0,0,1,-29.252,15.517)">
                    <path d="M523.242,1855.42L509.808,1855.42L509.808,1838.08L555.086,1838.08L555.086,1855.42L541.652,1855.42L541.652,1883.36L523.242,1883.36L523.242,1855.42Z" style="fill:rgb(17,0,47);"/>
                </g>
                <g transform="matrix(1,0,0,1,-29.252,15.517)">
                    <path d="M688.441,1883.36L643.162,1883.36L643.162,1838.08L688.441,1838.08L688.441,1853.98L665.862,1853.98L665.862,1867.45L688.441,1867.45L688.441,1883.36Z" style="fill:rgb(17,0,47);"/>
                </g>
                <g transform="matrix(1,0,0,1,-29.252,15.517)">
                    <path d="M736.78,1883.36L736.78,1867.45L728.178,1867.45L728.178,1883.36L709.84,1883.36L709.84,1838.08L728.178,1838.08L728.178,1853.63L736.78,1853.63L736.78,1838.08L755.118,1838.08L755.118,1883.36L736.78,1883.36Z" style="fill:rgb(17,0,47);"/>
                </g>
            </g>
        </g>
    </g>
</svg>
